<?xml version="1.0" encoding="utf-8"?>
<!-- Generator: Adobe Illustrator 16.0.0, SVG Export Plug-In . SVG Version: 6.00 Build 0)  -->
<!DOCTYPE svg PUBLIC "-//W3C//DTD SVG 1.1//EN" "http://www.w3.org/Graphics/SVG/1.1/DTD/svg11.dtd">
<svg version="1.1" xmlns="http://www.w3.org/2000/svg" xmlns:xlink="http://www.w3.org/1999/xlink" x="0px" y="0px"
	 width="303.458px" height="370.417px" viewBox="0 0 303.458 370.417" enable-background="new 0 0 303.458 370.417"
	 xml:space="preserve">
<g id="Z">
	<g>
		<g>
			<path d="M152.206,367.75c-82.98,0-150.127-82.073-150.127-183.5S69.226,0.75,152.206,0.75c82.981,0,150.127,82.073,150.127,183.5
				S235.187,367.75,152.206,367.75z"/>
			<path d="M277.336,184.25c0-84.582-56.004-152.857-125.13-152.857c-69.126,0-125.131,68.275-125.131,152.857
				S83.08,337.107,152.206,337.107C221.333,337.107,277.336,268.832,277.336,184.25z"/>
			<path d="M152.206,306.643c-55.345,0-100.061-54.834-100.061-122.393c0-67.558,44.716-122.393,100.061-122.393
				c55.345,0,100.061,54.835,100.061,122.393C252.267,251.809,207.551,306.643,152.206,306.643z"/>
			<path d="M227.27,184.25c0-50.713-33.573-91.75-75.064-91.75c-41.49,0-75.064,41.037-75.064,91.75
				c0,50.713,33.574,91.75,75.064,91.75C193.697,276,227.27,234.963,227.27,184.25z"/>
			<path d="M152.206,245.357c-27.636,0-50.067-27.239-50.067-61.107s22.431-61.107,50.067-61.107
				c27.636,0,50.067,27.238,50.067,61.107S179.842,245.357,152.206,245.357z"/>
			<path d="M177.203,184.25c0-16.845-11.142-30.643-24.997-30.643c-13.854,0-24.997,13.798-24.997,30.643
				s11.142,30.643,24.997,30.643C166.061,214.893,177.203,201.095,177.203,184.25z"/>
		</g>
	</g>
	<rect x="5.079" y="120.075" fill="none" width="265.532" height="275.562"/>
	<text transform="matrix(1 0 0 1 34.6953 311.7256)" fill="#E7F5F6" font-family="'MVBoli'" font-size="250">Z</text>
</g>
<g id="S">
	<rect x="-21.922" y="16.075" fill="none" width="265.532" height="275.562"/>
	<text transform="matrix(1 0 0 1 34.3672 207.7256)" fill="#E7F5F6" font-family="'MVBoli'" font-size="250">S</text>
</g>
</svg>
